<svg width="81" height="246" viewBox="0 0 81 246" fill="none" xmlns="http://www.w3.org/2000/svg">
<path fill-rule="evenodd" clip-rule="evenodd" d="M28.7904 20.3315C28.7904 20.3315 29.2622 23.0226 29.5552 24.1551L28.7904 20.3315ZM9.52923 132.008C9.57961 132.085 9.62085 132.165 9.65004 132.246C9.84802 132.794 9.55959 133.583 9.27942 134.349C9.1001 134.839 8.92416 135.32 8.8813 135.723C8.84194 136.094 8.78831 136.498 8.73349 136.912C8.64101 137.61 8.54512 138.334 8.50856 138.96C8.43815 140.167 8.35224 142.359 8.37409 142.99C8.37736 143.085 8.38191 143.176 8.3864 143.267C8.42358 144.015 8.45639 144.676 7.71709 146.049C7.4941 146.463 6.90135 146.581 6.51302 146.659C6.45505 146.67 6.40164 146.681 6.35469 146.691C6.1714 146.733 6.13761 147.061 6.10318 147.396C6.07077 147.711 6.03778 148.031 5.87891 148.123C5.5621 148.306 4.83767 148.268 4.49926 148.159C4.28791 148.09 4.25381 147.738 4.21887 147.377C4.18818 147.061 4.15685 146.737 4.00408 146.594C3.79506 146.398 3.53361 146.395 3.27314 146.391C3.00535 146.388 2.7386 146.385 2.53094 146.172C2.20739 145.841 2.23868 145.484 2.26677 145.163C2.30208 144.761 2.33232 144.416 1.64638 144.252C1.09733 144.121 0.682015 143.238 0.73075 142.569C0.843079 141.027 0.679184 140.115 0.543067 139.358C0.491593 139.071 0.444092 138.807 0.417002 138.539C0.376848 138.142 0.321768 137.7 0.264946 137.244C0.158139 136.387 0.045177 135.481 0.013617 134.73C-0.022084 133.88 0.0193632 132.837 0.058131 131.862C0.0767278 131.395 0.094708 130.942 0.10326 130.534C0.112231 130.106 0.118143 129.631 0.124255 129.14C0.136827 128.13 0.150249 127.052 0.192899 126.173C0.234869 125.308 0.48218 121.445 0.490605 121.314L0.490615 121.314L0.490626 121.313L0.490652 121.313L0.490661 121.313L0.490826 121.31C0.490826 121.31 0.0278585 113.206 0.213079 109.696C0.502618 104.209 1.81611 96.0305 2.89675 90.6429C3.22895 88.9867 3.93196 87.148 4.63924 85.2982C5.41759 83.2624 6.20113 81.2131 6.50133 79.3786C6.91445 76.8541 6.80966 73.8124 6.70663 70.822C6.62455 68.4393 6.54358 66.0891 6.72663 64.0591C6.83555 62.8511 6.89861 61.519 6.96445 60.1285C7.18871 55.3917 7.44505 49.9774 9.65535 46.4867C11.2014 44.045 14.9149 42.2402 17.5687 40.9503L17.7657 40.8545C18.9731 40.2672 20.5071 39.9118 22.046 39.5552C23.5538 39.2059 25.0663 38.8554 26.281 38.2847C26.3731 38.2415 26.4634 38.197 26.5519 38.1511C28.2201 37.2864 30.6293 35.9821 31.5082 34.3212C32.0305 33.3341 32.1433 31.4765 32.1254 29.8652C31.6148 29.3022 31.1525 28.7104 30.8297 28.1487C30.316 27.2547 29.9996 25.9605 29.7287 24.8523L29.7287 24.8523L29.7287 24.8522L29.7287 24.8522C29.6692 24.6088 29.6119 24.3744 29.5552 24.1551L29.5551 24.1551C29.5419 24.1477 28.2495 23.4199 28.0257 23.0505C27.3933 22.0066 27.2306 20.3266 27.1087 19.0682L27.091 18.887C27.067 18.6418 27.0052 18.3413 26.9394 18.0213C26.7395 17.0499 26.5027 15.8992 27.176 15.5732C27.7496 15.2956 28.8754 16.8478 28.8754 16.8478C28.8754 16.8478 28.3903 14.4259 28.2056 13.3284C27.9601 11.8703 27.9169 9.91877 28.2194 8.47135C28.4905 7.17386 29.1964 5.21963 30.061 4.21497C31.5383 2.4986 33.6617 1.05735 35.8429 0.448656C38.1508 -0.195413 41.498 -0.101865 43.83 0.448656C45.2724 0.789141 46.6039 1.42809 47.7149 2.40887C49.2996 3.80785 50.1854 5.06646 50.7698 7.09796C51.2774 8.86245 51.6156 11.8261 51.3824 13.4648C51.2539 14.3676 50.6276 17.3576 50.6276 17.3576C50.6276 17.3576 52.0352 15.9612 52.6668 16.253C53.4359 16.6082 53.326 18.1524 53.2644 19.0183L53.2616 19.057C53.1828 20.167 52.5962 21.6093 51.9871 22.5407C51.5886 23.1501 50.3313 24.1713 50.0777 24.3743C50.2391 22.4401 50.2027 19.9916 50.2027 19.9916L50.0328 24.41L50.0777 24.3743C50.0275 24.9753 49.9582 25.5267 49.8629 25.9395C49.6699 26.7744 49.2548 27.8752 48.7583 28.5735C48.5587 28.8542 48.3219 29.1339 48.0599 29.4101C48.2008 30.3342 48.3892 31.2619 48.6299 31.8431C49.2974 33.4545 50.6182 35.5219 52.0092 36.5741C53.5008 37.7023 55.7466 38.2983 57.8566 38.8582L57.8567 38.8582L57.8567 38.8582C58.9064 39.1367 59.9225 39.4063 60.7954 39.7281C61.5824 40.0182 62.5095 40.251 63.4699 40.4922L63.47 40.4922C65.5709 41.0198 67.8309 41.5873 69.131 42.8821C71.5411 45.2825 73.0468 48.2131 73.1862 53.3637C73.2346 55.1547 73.2548 57.1312 73.2758 59.1844V59.1852C73.3267 64.1837 73.3824 69.6363 73.862 73.9717C74.3008 77.9374 75.3045 83.9259 76.3402 87.0383C76.7244 88.1929 76.66 92.2239 76.6 95.982V95.9826V95.9832L76.6 95.984L76.6 95.9876L76.5999 95.9904V95.9907V95.9909V95.9911V95.9914V95.9918C76.5717 97.758 76.5445 99.4633 76.5655 100.781C76.5766 101.484 76.5861 102.215 76.5958 102.961L76.5958 102.965C76.6464 106.879 76.7023 111.207 77.0392 114.073C77.1133 114.703 77.4895 115.829 77.8311 116.851C78.0585 117.532 78.2706 118.167 78.3678 118.578C78.5852 119.499 78.3678 121.732 78.3678 121.732L78.3017 121.719C78.3683 121.98 78.6731 123.17 78.8444 123.705C79.0684 124.405 79.38 125.202 79.6925 126.002L79.6926 126.002C80.0178 126.834 80.344 127.668 80.5733 128.398C80.9463 129.585 80.933 131.23 80.8752 132.473C80.8619 132.759 80.8577 133.068 80.8533 133.386C80.8411 134.274 80.8278 135.24 80.6144 136.009C80.1908 137.534 79.4859 139.516 78.5081 140.768C77.8628 141.593 76.7875 142.697 75.9764 143.429C74.8016 144.49 73.4017 144.969 72.875 145.076C72.7554 145.1 72.6343 145.129 72.5145 145.157C71.8504 145.314 71.2229 145.463 71.0957 144.799C71.0859 144.748 71.0708 144.683 71.0537 144.608C70.9711 144.251 70.8416 143.69 71.0295 143.523C71.5134 143.092 71.9408 142.002 72.2028 141.305C72.4012 140.777 72.508 140.193 72.6275 139.539L72.6275 139.539C72.6658 139.33 72.7053 139.114 72.7496 138.89C72.8958 138.151 72.7497 137.182 72.6277 136.373C72.5974 136.173 72.5686 135.982 72.5462 135.807C72.5283 135.668 72.51 135.518 72.4911 135.363L72.4911 135.363C72.4218 134.794 72.3432 134.15 72.2375 133.646C72.1934 133.437 72.161 133.197 72.1272 132.947C72.0304 132.233 71.9219 131.432 71.4965 130.991C71.3575 130.847 71.0909 130.86 70.8343 130.873C70.5428 130.887 70.264 130.901 70.1998 130.682C70.1525 130.522 70.236 130.317 70.3754 130.109C70.8142 129.599 71.3113 129.139 71.3113 129.139C71.3113 129.139 70.6957 129.631 70.3754 130.109C70.1115 130.415 69.8687 130.739 69.7676 130.991C69.5757 131.47 69.589 132.103 69.6018 132.709C69.6092 133.063 69.6165 133.408 69.5823 133.708C69.5608 133.897 69.6698 134.232 69.7848 134.585C69.9529 135.101 70.1338 135.656 69.939 135.855C69.5043 136.299 68.9532 136.488 68.3975 136.21C67.99 136.006 67.3154 134.556 67.2107 134.113C66.9937 133.193 66.9706 132.059 66.9706 131.115C66.9706 130.545 67.1158 129.736 67.2293 129.103L67.2639 128.909L67.2839 128.796C67.4155 128.039 67.6981 126.919 68.05 126.237C68.2944 125.763 68.4722 125.256 68.6499 124.748L68.65 124.748C68.8184 124.267 68.9868 123.787 69.2119 123.335C69.6373 122.48 70.5762 120.277 70.6837 120.024C70.5568 119.341 69.9622 116.172 69.5816 114.749C69.0752 112.854 68.2852 110.747 67.4819 108.604L67.4818 108.604L67.4818 108.604L67.4818 108.604L67.4818 108.604L67.4818 108.604L67.4817 108.604L67.4817 108.604L67.4817 108.603L67.4817 108.603L67.4816 108.603C66.4198 105.771 65.3347 102.876 64.8506 100.33C64.7186 99.6363 64.5781 98.945 64.4366 98.2489C63.656 94.4082 62.8453 90.4195 63.2736 85.0107C63.4066 83.3311 63.2347 81.3496 63.066 79.4044V79.4044L63.066 79.4043C62.9351 77.8942 62.806 76.406 62.823 75.0981C62.8288 74.6469 62.8447 74.1755 62.8699 73.6896C63.1177 72.5231 63.347 71.3891 63.4989 70.3671C63.6098 69.6202 63.6609 68.7623 63.7132 67.8842L63.7132 67.8841V67.884C63.7461 67.3317 63.7795 66.7715 63.8285 66.2259C64.0016 65.3821 64.1932 64.5754 64.4 63.8338C64.9531 61.8506 67.1034 57.5258 67.1034 57.5258C67.1034 57.5258 64.7354 61.9856 64.1747 64.0591C63.999 64.7089 63.898 65.4526 63.8285 66.2259C63.3359 68.6275 62.9924 71.3301 62.8699 73.6896C62.8014 74.012 62.7315 74.3369 62.6614 74.6625C62.2759 76.4541 61.8852 78.2696 61.6966 79.8291C61.3982 82.2952 61.2991 85.3132 61.205 88.1779C61.153 89.762 61.1025 91.2993 61.0207 92.6705C60.9598 93.6909 60.8234 94.8268 60.6824 96L60.6824 96.0001C60.403 98.325 60.106 100.797 60.3448 102.808C60.5632 104.648 61.3525 106.704 62.1317 108.734C62.782 110.429 63.4254 112.105 63.7241 113.622C64.4268 117.19 64.7928 125.324 64.8443 126.537L64.849 126.537C64.849 126.537 65.6691 131.957 65.7228 134.309C65.7822 136.91 65.338 140.292 64.981 143.01C64.9472 143.267 64.9142 143.519 64.8825 143.763C64.3057 148.201 63.2734 154.086 62.3616 158.468C62.0734 159.853 61.6374 161.405 61.1921 162.99C60.5548 165.259 59.8987 167.595 59.6306 169.602C59.2968 172.101 59.3156 175.485 59.4206 178.005C59.4778 179.379 59.7045 180.958 59.9328 182.549C60.1887 184.331 60.4467 186.128 60.4709 187.668C60.5009 189.568 60.2489 191.947 60.025 194.062L60.025 194.062C59.9584 194.692 59.8942 195.298 59.8407 195.861C59.5227 199.208 59.0212 203.663 58.5803 206.995C58.3551 208.697 58.027 210.622 57.6917 212.588L57.6916 212.588C57.2054 215.44 56.7041 218.38 56.4795 220.86C56.2918 222.932 56.2694 227.792 56.2694 227.792L55.992 227.786V227.818L56.2678 227.823C56.2678 227.823 56.1124 228.815 56.2502 229.306C56.5014 230.204 57.2801 231.202 57.9456 232.056C58.335 232.555 58.6856 233.005 58.8692 233.356C59.7224 234.985 61.0086 236.302 62.346 237.671L62.3461 237.671L62.3462 237.671C63.1851 238.529 64.0442 239.409 64.8294 240.399C65.2419 240.919 65.3634 242.601 64.9878 243.148C64.0528 244.512 62.9016 245.512 61.3519 245.662C60.3591 245.758 60.2145 245.483 60.1365 245.335C60.0928 245.252 60.07 245.208 59.9302 245.293C58.9147 245.906 57.6364 246.225 56.5223 245.818C55.9244 245.599 55.7074 245.469 55.2253 245.054C54.7321 244.628 53.5977 243.415 53.5977 243.415C53.0516 242.981 51.765 241.809 51.1066 239.788C50.8614 239.035 49.9783 238.389 49.0958 237.744C48.4397 237.264 47.7839 236.784 47.3906 236.261C47.3906 236.261 46.5353 236.197 47.1545 233.347C47.2509 232.904 47.9902 230.742 48.1848 230.332C48.2228 230.251 48.308 230.385 48.4121 230.622C48.542 230.991 48.6715 231.344 48.7837 231.65L48.784 231.65L48.854 231.841C49.0021 232.295 49.1151 232.672 49.1151 232.672C49.1571 232.68 49.0386 232.345 48.854 231.841C48.7162 231.42 48.548 230.932 48.4121 230.622C48.017 229.5 47.618 228.226 47.6896 227.668L47.9209 227.672C47.9212 227.643 47.9223 227.615 47.9242 227.589C47.9242 227.589 47.9242 227.589 47.9243 227.588L47.6916 227.582C47.6916 227.582 48.1719 224.87 48.4967 222.751C48.8674 220.333 48.3203 217.335 47.8122 214.551C47.583 213.295 47.3618 212.083 47.2363 210.987C47.0336 209.217 46.7211 207.251 46.3986 205.222C45.7785 201.321 45.1212 197.185 45.1355 193.76C45.1412 192.394 45.4515 190.831 45.7643 189.256C46.1206 187.462 46.4801 185.652 46.396 184.097C46.331 182.897 45.9895 181.527 45.6538 180.181C45.3919 179.131 45.1335 178.095 45.0129 177.165C44.6633 174.468 44.7269 170.951 44.78 168.013C44.7884 167.546 44.7966 167.093 44.8028 166.661C44.84 164.074 44.8831 160.626 44.6704 158.048C44.4938 155.907 43.9117 153.439 43.3391 151.011L43.339 151.011C42.8804 149.067 42.4279 147.148 42.1945 145.443C41.9231 143.461 41.8474 140.833 41.7873 138.748L41.7743 138.301C41.7185 136.4 41.7654 132.181 41.7733 131.471L41.7743 131.368C41.6197 130.187 41.8986 129.431 41.9128 129.393C43.1532 128.557 44.2527 127.164 44.2527 127.164L41.9134 129.392L41.9128 129.393C41.3729 129.758 40.8063 130.017 40.292 130.01C39.6764 130.001 38.9449 129.605 38.257 129.097L35.8923 126.869C35.8923 126.869 37.0024 128.169 38.257 129.097L39.0808 129.873C39.0808 129.873 39.3067 137.806 39.0434 140.822C38.8538 142.992 38.4547 145.697 38.0978 148.114L38.0978 148.115L38.0978 148.115L38.0977 148.115L38.0977 148.115L38.0975 148.117C37.9859 148.873 37.8785 149.6 37.7829 150.275C37.652 151.199 37.4786 152.232 37.3002 153.296C36.9912 155.137 36.6671 157.069 36.5225 158.678C36.4344 159.658 36.4343 160.8 36.4342 161.95V161.95C36.4341 163.23 36.434 164.521 36.3124 165.61C36.1222 167.315 35.6622 169.407 35.2464 171.298C35.1018 171.956 34.9626 172.589 34.8419 173.173C34.6886 173.915 34.4795 174.609 34.2738 175.291C33.9191 176.468 33.5742 177.612 33.5414 178.918C33.5235 179.631 33.6746 180.848 33.8107 181.943C33.8942 182.615 33.9719 183.241 34.0016 183.677C34.2924 187.954 33.9454 193.69 33.5814 197.962C33.0087 204.685 32.3117 211.402 31.1171 217.826C30.9906 218.506 31.053 221.835 31.3964 222.918C32.4786 226.331 31.9008 229.053 31.9008 229.053L31.8964 229.053C31.8975 229.231 31.8147 229.622 31.7137 230.098C31.4667 231.264 31.1111 232.942 31.6099 233.27C32.3039 233.727 31.9168 235.284 31.5697 236.039C31.2875 236.653 30.6907 237.027 30.0896 237.404C29.5903 237.717 29.088 238.031 28.7604 238.487C27.9826 239.569 27.1551 242.34 27.1551 242.661C27.1551 242.969 26.7128 243.129 26.2874 243.283L26.2321 243.303C25.8364 243.447 25.239 244.279 25.0401 244.556L25.0121 244.594C25.0023 244.608 24.9942 244.619 24.9879 244.627C24.9833 244.634 24.9778 244.642 24.9714 244.651C24.8455 244.832 24.3503 245.544 21.978 245.31C21.7233 245.285 21.4458 245.144 21.1694 245.004C20.9096 244.873 20.6508 244.742 20.4128 244.708C20.1427 244.669 19.5843 244.672 19.01 244.675H19.0097C18.3665 244.679 17.7033 244.683 17.4028 244.627C17.1132 244.574 16.776 244.48 16.4443 244.386C16.1755 244.311 15.9103 244.236 15.6771 244.186C15.2275 244.089 14.1386 243.643 13.9112 243.464C13.7247 243.317 13.205 242.619 13.1086 242.42C12.8816 241.951 12.8525 241.046 12.948 240.534C13.0428 240.026 14.9872 237.361 15.5567 236.761C16.1236 236.164 16.7494 235.738 17.4019 235.294C18.6927 234.415 20.0876 233.465 21.3358 230.982L22.4498 228.767C22.4667 228.185 22.5693 224.43 22.4475 222.751C22.2956 220.656 21.869 218.108 21.4721 215.737C21.2913 214.657 21.1167 213.614 20.977 212.667C20.7708 211.269 20.5092 209.721 20.2389 208.122C19.6923 204.887 19.1099 201.439 18.8762 198.592C18.5463 194.572 18.3432 189.168 18.6662 185.147C18.7603 183.975 19.0274 182.664 19.2998 181.327C19.6946 179.389 20.1005 177.396 20.0067 175.694C19.9671 174.974 19.8576 174.159 19.7521 173.372L19.7521 173.372L19.752 173.372C19.6941 172.94 19.6373 172.516 19.5939 172.123C19.4857 171.141 19.5655 169.983 19.6449 168.832C19.7177 167.775 19.7902 166.724 19.7165 165.821C19.6207 164.645 19.2367 163.276 18.8662 161.955C18.6266 161.101 18.3926 160.267 18.246 159.518C17.1661 154.007 15.7838 146.627 15.305 141.032C14.8911 136.196 15.2649 125.069 15.2649 125.069L15.2933 125.069C15.38 124.431 16.4296 116.739 17.0898 113.397C17.4416 111.616 18.0006 109.617 18.5702 107.579C19.3534 104.778 20.1566 101.905 20.4691 99.4291C21.0869 94.5337 21.6152 88.544 20.9197 83.659C20.7245 82.2879 20.0932 80.5444 19.4754 78.8383C18.9583 77.4101 18.4506 76.0081 18.2162 74.8728C18.148 74.5421 18.0908 74.197 18.042 73.8405C18.0207 72.7675 17.9033 71.6191 17.7885 70.4968C17.7676 70.2926 17.7468 70.0893 17.7267 69.8875C17.6788 69.0587 17.627 68.2299 17.5466 67.4311C17.5345 67.2652 17.5159 67.1013 17.4927 66.9385C17.3999 66.1584 17.2737 65.4141 17.0898 64.7349C17.0681 64.6546 17.0434 64.5704 17.0162 64.4828C16.4884 62.4109 14.3864 58.6522 14.3864 58.6522C14.3864 58.6522 16.3898 62.4683 17.0162 64.4828C17.0524 64.6249 17.0812 64.7591 17.1014 64.8836C17.1536 65.2054 17.2197 65.5199 17.2854 65.8326C17.3628 66.2008 17.4397 66.5665 17.4927 66.9385C17.512 67.1013 17.5299 67.2655 17.5466 67.4311C17.5522 67.5082 17.5564 67.5857 17.5591 67.6637C17.5824 68.3601 17.6495 69.1129 17.7267 69.8875L17.7474 70.2481C17.8183 71.4892 17.8887 72.7203 18.042 73.8405C18.0506 74.2743 18.0435 74.6957 18.0141 75.0981C17.9378 76.1434 17.5005 77.2694 17.0667 78.3864C16.6951 79.3433 16.326 80.2936 16.1887 81.1809C16.0562 82.0367 16.1683 83.0789 16.2764 84.084C16.3457 84.7281 16.4133 85.357 16.414 85.9119C16.4172 88.8887 16.4193 92.8828 15.9634 95.8245C15.7139 97.4342 14.7835 99.8476 13.8987 102.143C13.2252 103.89 12.5781 105.568 12.2779 106.772C11.8514 108.482 11.2697 109.758 10.6918 111.026C10.087 112.353 9.48621 113.671 9.07148 115.468C8.66596 117.225 7.21672 121.426 7.21672 121.426C7.21673 121.426 8.82983 123.252 9.51558 124.13C10.3615 125.214 10.9103 126.08 11.5815 127.336C12.0675 128.245 12.5565 129.87 12.8561 130.895C13.0717 131.632 13.4028 133.345 13.3492 134.113C13.3324 134.354 13.3295 134.642 13.3265 134.949C13.3185 135.745 13.3094 136.666 13.0538 137.21C12.83 137.687 12.0232 137.878 11.5889 137.747C10.9966 137.569 10.8268 136.501 10.7473 135.744C10.7277 135.557 10.7132 135.336 10.6976 135.1C10.6534 134.427 10.6011 133.632 10.3988 133.149C10.2331 132.754 9.89709 132.357 9.52923 132.008ZM8.0365 130.865C8.0365 130.865 8.83897 131.353 9.52923 132.008C9.10589 131.361 8.0365 130.865 8.0365 130.865Z" fill="#626377"/>
</svg>
